<svg xmlns="http://www.w3.org/2000/svg" version="1.1" xmlns:xlink="http://www.w3.org/1999/xlink" xmlns:svgjs="http://svgjs.dev/svgjs" width="1440" height="560" preserveAspectRatio="none" viewBox="0 0 1440 560"><g mask="url(&quot;#SvgjsMask1004&quot;)" fill="none"><path d="M0 99.64L10 64.57L20 91.77L30 139.85L40 149.34L50 109.43L60 115.4L70 76.07L80 58.25L90 84.74L100 99.67L110 160.26L120 162.33L130 140.19L140 100.66L150 104.54L160 160.4L170 102.55L180 137.24L190 128.19L200 105.02L210 143.19L220 178.62L230 130.18L240 188.29L250 246.73L260 259.41L270 227.24L280 186.45L290 212.17L300 180.07L310 183.24L320 157.72L330 88.11L340 37.27L350 32.38L360 20.67L370 35.11L380 15.95L390 26.65L400 25.84L410 1.64L420 69.48L430 35.2L440 47.5L450 95.5L460 92.22L470 60.48L480 102.26L490 79.66L500 146.67L510 95.95L520 51.71L530 103.03L540 155.56L550 213.76L560 196.47L570 207.86L580 195.84L590 188.83L600 130.79L610 158.73L620 163.3L630 188.22L640 171.17L650 204.03L660 135.1L670 199.93L680 197.92L690 175.93L700 115.43L710 57.71L720 8.81L730 10.16L740 45.47L750 26.3L760 64.53L770 119.58L780 71.88L790 74.56L800 75.55L810 111.37L820 175.39L830 224.85L840 266.07L850 334.89L860 333L870 285.98L880 243.53L890 189.83L900 223.31L910 155.15L920 176.02L930 191.61L940 213.51L950 161.71L960 175.35L970 162.08L980 103.86L990 105.71L1000 143.39L1010 210.71L1020 278.05L1030 308.13L1040 306.44L1050 277.79L1060 234.6L1070 208.29L1080 263.68L1090 277.37L1100 302.41L1110 350.98L1120 380.16L1130 424.5L1140 456.44L1150 464.88L1160 469.36L1170 465.02L1180 407.83L1190 435.56L1200 437.73L1210 483.19L1220 432.93L1230 453.74L1240 400.4L1250 349.79L1260 308.94L1270 239.4L1280 218.81L1290 211.99L1300 263.39L1310 282.32L1320 348.51L1330 378.35L1340 386.51L1350 393.09L1360 367.6L1370 334.29L1380 353.54L1390 285.8L1400 343.15L1410 390.97L1420 392.42L1430 382.1L1440 369.43" stroke="rgba(238, 245, 249, 1)" stroke-width="2"></path><path d="M0 99.64L10 64.57L20 91.77L30 139.85L40 149.34L50 109.43L60 115.4L70 76.07L80 58.25L90 84.74L100 99.67L110 160.26L120 162.33L130 140.19L140 100.66L150 104.54L160 160.4L170 102.55L180 137.24L190 128.19L200 105.02L210 143.19L220 178.62L230 130.18L240 188.29L250 246.73L260 259.41L270 227.24L280 186.45L290 212.17L300 180.07L310 183.24L320 157.72L330 88.11L340 37.27L350 32.38L360 20.67L370 35.11L380 15.95L390 26.65L400 25.84L410 1.64L420 69.48L430 35.2L440 47.5L450 95.5L460 92.22L470 60.48L480 102.26L490 79.66L500 146.67L510 95.95L520 51.71L530 103.03L540 155.56L550 213.76L560 196.47L570 207.86L580 195.84L590 188.83L600 130.79L610 158.73L620 163.3L630 188.22L640 171.17L650 204.03L660 135.1L670 199.93L680 197.92L690 175.93L700 115.43L710 57.71L720 8.81L730 10.16L740 45.47L750 26.3L760 64.53L770 119.58L780 71.88L790 74.56L800 75.55L810 111.37L820 175.39L830 224.85L840 266.07L850 334.89L860 333L870 285.98L880 243.53L890 189.83L900 223.31L910 155.15L920 176.02L930 191.61L940 213.51L950 161.71L960 175.35L970 162.08L980 103.86L990 105.71L1000 143.39L1010 210.71L1020 278.05L1030 308.13L1040 306.44L1050 277.79L1060 234.6L1070 208.29L1080 263.68L1090 277.37L1100 302.41L1110 350.98L1120 380.16L1130 424.5L1140 456.44L1150 464.88L1160 469.36L1170 465.02L1180 407.83L1190 435.56L1200 437.73L1210 483.19L1220 432.93L1230 453.74L1240 400.4L1250 349.79L1260 308.94L1270 239.4L1280 218.81L1290 211.99L1300 263.39L1310 282.32L1320 348.51L1330 378.35L1340 386.51L1350 393.09L1360 367.6L1370 334.29L1380 353.54L1390 285.8L1400 343.15L1410 390.97L1420 392.42L1430 382.1L1440 369.43L1440 560L0 560z" fill="url(&quot;#SvgjsLinearGradient1005&quot;)"></path></g><defs><mask id="SvgjsMask1004"><rect width="1440" height="560" fill="#ffffff"></rect></mask><linearGradient x1="50%" y1="0%" x2="50%" y2="100%" id="SvgjsLinearGradient1005"><stop stop-opacity="0.65" stop-color="rgba(238, 245, 249, 1)" offset="0"></stop><stop stop-opacity="0" stop-color="#ffffff" offset="0.8"></stop></linearGradient></defs></svg>